<svg width="30" height="30" viewBox="0 0 30 30" fill="none" xmlns="http://www.w3.org/2000/svg">
<path fill-rule="evenodd" clip-rule="evenodd" d="M14.9911 0C18.9994 0 22.7607 1.5603 25.5956 4.39539C28.2392 7.03882 29.7797 10.4872 29.976 14.1906C29.9809 14.287 29.9853 14.3835 29.9887 14.4803C29.9945 14.6531 29.9975 14.8263 29.9975 15C29.9975 15.2665 29.9906 15.5319 29.977 15.7959C29.7846 19.5044 28.2489 22.958 25.602 25.6046C22.7099 28.4968 18.8666 30 14.9848 30C12.5683 30 10.1327 29.4165 7.90665 28.2178C5.9086 29.6575 3.95548 29.9683 2.6298 29.9683C2.34513 29.9683 2.08976 29.9536 1.86954 29.9326C1.70743 29.9172 1.56485 29.8984 1.44376 29.8795C0.834874 29.7843 0.365148 29.3087 0.270421 28.6998C0.175206 28.0909 0.485753 27.5011 1.03751 27.2283C2.18546 26.6638 2.95939 25.5349 3.44132 24.5645C-1.47372 18.647 -1.09335 9.87524 4.38663 4.39539C7.22159 1.5603 10.9828 0 14.9911 0ZM16.9384 15.4471C16.9384 16.2756 16.267 16.9471 15.4384 16.9471C14.6098 16.9471 13.9384 16.2756 13.9384 15.4471C13.9384 14.6187 14.6098 13.9471 15.4384 13.9471C16.267 13.9471 16.9384 14.6187 16.9384 15.4471ZM20.8676 16.9471C21.6962 16.9471 22.3676 16.2756 22.3676 15.4471C22.3676 14.6187 21.6962 13.9471 20.8676 13.9471C20.039 13.9471 19.3676 14.6187 19.3676 15.4471C19.3676 16.2756 20.039 16.9471 20.8676 16.9471ZM11.5092 15.4471C11.5092 16.2756 10.8378 16.9471 10.0092 16.9471C9.18058 16.9471 8.50919 16.2756 8.50919 15.4471C8.50919 14.6187 9.18058 13.9471 10.0092 13.9471C10.8378 13.9471 11.5092 14.6187 11.5092 15.4471Z" fill="white"/>
</svg>
