<svg width="30" height="30" viewBox="0 0 30 30" fill="none" xmlns="http://www.w3.org/2000/svg">
<path fill-rule="evenodd" clip-rule="evenodd" d="M14.9924 0C19.001 0 22.7626 1.5603 25.5978 4.39539C28.2416 7.03882 29.7822 10.4872 29.9785 14.1906L29.9844 14.307L29.9912 14.4803C29.9946 14.5793 29.9971 14.6785 29.9985 14.7777L30 15L29.9985 15.1964L29.9941 15.4229C29.9907 15.5475 29.9858 15.6719 29.9795 15.7959C29.7871 19.5044 28.2513 22.958 25.6041 25.6046C22.7118 28.4968 18.8682 30 14.986 30C12.5693 30 10.1336 29.4165 7.90732 28.2178C5.9091 29.6575 3.95581 29.9683 2.63002 29.9683C2.54456 29.9683 2.46155 29.9669 2.38195 29.9646C2.32237 29.9628 2.26426 29.9603 2.20811 29.9574C2.08749 29.9512 1.97469 29.9426 1.8697 29.9326C1.70758 29.9172 1.56499 29.8984 1.44388 29.8795C0.834945 29.7843 0.365179 29.3087 0.270444 28.6998C0.175221 28.0909 0.485794 27.5011 1.0376 27.2283C2.18564 26.6638 2.95964 25.5349 3.44161 24.5645C-1.47384 18.647 -1.09344 9.87524 4.387 4.39539C7.2222 1.5603 10.9837 0 14.9924 0ZM8.83318 10H21.1692C21.6258 10 22.0018 10.3807 22.0018 10.8566C22.0018 11.3325 21.6316 11.7133 21.1692 11.7133H8.83318C8.37074 11.7133 8.00059 11.3325 8.00059 10.8566C8.00059 10.3807 8.37074 10 8.83318 10ZM21.1692 14.1433H8.83318C8.37074 14.1433 8.00059 14.524 8.00059 14.9999C8.00059 15.2749 8.12413 15.5181 8.31751 15.6744C8.45912 15.7887 8.63785 15.8566 8.83318 15.8566H21.1692C21.6316 15.8566 22.0018 15.4758 22.0018 14.9999C22.0018 14.524 21.6258 14.1433 21.1692 14.1433ZM8.83318 18.2869H21.1692C21.6258 18.2869 22.0018 18.6676 22.0018 19.1434C22.0018 19.6194 21.6316 20.0001 21.1692 20.0001H8.83318C8.37074 20.0001 8.00059 19.6194 8.00059 19.1434C8.00059 18.6676 8.37074 18.2869 8.83318 18.2869Z" fill="white"/>
</svg>
