<svg width="30" height="30" viewBox="0 0 30 30" fill="none" xmlns="http://www.w3.org/2000/svg">
<path d="M28.3432 0H1.6558C0.741948 0 0 0.740466 0 1.6558V28.3432C0 29.2585 0.741948 30 1.6558 30H16.0235V18.3822H12.1142V13.854H16.0235V10.5147C16.0235 6.64049 18.3892 4.52974 21.846 4.52974C23.5033 4.52974 24.9244 4.65372 25.3389 4.70757V8.75716L22.9411 8.75815C21.0616 8.75815 20.699 9.65175 20.699 10.9623V13.8525H25.1833L24.5969 18.3803H20.6985V29.9985H28.3427C29.2576 29.9985 30 29.2561 30 28.3432V1.65481C29.9995 0.740466 29.2581 0 28.3432 0Z" fill="#FDB92C"/>
</svg>
