<?xml version="1.0" encoding="utf-8"?>
<!-- Generator: Adobe Illustrator 19.0.0, SVG Export Plug-In . SVG Version: 6.00 Build 0)  -->
<svg version="1.1" id="Layer_1" xmlns="http://www.w3.org/2000/svg" xmlns:xlink="http://www.w3.org/1999/xlink" x="0px" y="0px"
	 viewBox="0 0 126 126" style="enable-background:new 0 0 126 126;" xml:space="preserve">
<style type="text/css">
	.st0{clip-path:url(#XMLID_15_);fill:url(#XMLID_16_);}
	.st1{clip-path:url(#XMLID_15_);fill:url(#XMLID_17_);}
	.st2{clip-path:url(#XMLID_15_);fill:url(#XMLID_18_);}
	.st3{clip-path:url(#XMLID_15_);fill:#5D8039;}
	.st4{clip-path:url(#XMLID_15_);fill:#84A355;}
	.st5{clip-path:url(#XMLID_15_);}
	.st6{fill:#E6E6E5;}
	.st7{fill:#E46A5E;}
	.st8{fill:#91CCF0;}
	.st9{fill:#325072;}
</style>
<g id="XMLID_6993_">
	<defs>
		<circle id="XMLID_14932_" cx="63" cy="63" r="63"/>
	</defs>
	<use xlink:href="#XMLID_14932_"  style="overflow:visible;fill:#EABB22;"/>
	<clipPath id="XMLID_15_">
		<use xlink:href="#XMLID_14932_"  style="overflow:visible;"/>
	</clipPath>
	<linearGradient id="XMLID_16_" gradientUnits="userSpaceOnUse" x1="105.4833" y1="45.1012" x2="129.1456" y2="70.7354">
		<stop  offset="0" style="stop-color:#D3AB3C"/>
		<stop  offset="1" style="stop-color:#EABB22"/>
	</linearGradient>
	<polygon id="XMLID_14823_" class="st0" points="131.4,82.4 89.6,40.7 104.7,37 147.2,77.6 	"/>
	<linearGradient id="XMLID_17_" gradientUnits="userSpaceOnUse" x1="106.7025" y1="69.3834" x2="145.2112" y2="111.1012">
		<stop  offset="0" style="stop-color:#D3AB3C"/>
		<stop  offset="1" style="stop-color:#EABB22"/>
	</linearGradient>
	<polygon id="XMLID_14826_" class="st1" points="128.8,111.9 87,70.2 107.4,51.6 150,94.2 	"/>
	<linearGradient id="XMLID_18_" gradientUnits="userSpaceOnUse" x1="78.4732" y1="86.9163" x2="94.4865" y2="142.2493">
		<stop  offset="0" style="stop-color:#D3AB3C"/>
		<stop  offset="1" style="stop-color:#EABB22"/>
	</linearGradient>
	<polygon id="XMLID_14820_" class="st2" points="63.5,129.3 20.9,86.7 23.5,83.9 102.9,83.9 105.1,86.7 147.7,127.3 	"/>
	<path id="XMLID_15177_" class="st3" d="M107.5,44.5c0-1.9-2.1-3.5-2.1-3.5c-0.4-0.3-0.5-1-0.2-1.5c0,0,0.5-0.7,0.5-1.8
		c0-2-1.7-3.7-3.7-3.7c-0.7,0-1,0.1-1,0.1c-0.5,0.2-1.2,0-1.4-0.5c0,0-1.3-2.2-3.1-2.2c-1.6,0-2.9,1.7-2.9,1.7
		c-0.3,0.5-0.7,0.8-0.7,0.8c0,0,0,0-0.1,0c-2,0-3.7,1.7-3.7,3.7c0,0.2,0,0.2,0,0.2c0,0.2,0,0.3,0,0.3c0,0,0,0,0,0
		c-2,0-3.7,1.7-3.7,3.7c0,1.1,0.6,1.9,0.6,1.9c0.3,0.4,0.2,1.1-0.2,1.4c0,0-1.7,1.3-1.7,2.9c0,2,1.7,3.7,3.7,3.7c0.1,0,0.1,0,0.1,0
		c0.1,0,0.4,0.4,0.7,0.8c0,0,1.3,1.7,2.9,1.7c1,0,1.6-0.4,1.6-0.4c0.5-0.3,1.2-0.3,1.7,0c0,0,0.7,0.4,1.6,0.4c1.1,0,2-0.7,2-0.7
		c0.4-0.3,1.2-0.3,1.6,0c0,0,0.9,0.7,2,0.7c2,0,3.7-1.7,3.7-3.7c0-0.9-0.3-1.4-0.3-1.4c-0.3-0.5-0.2-1.2,0.3-1.5
		C105.7,47.8,107.5,46.3,107.5,44.5z"/>
	<path id="XMLID_14997_" class="st4" d="M110.5,60c0-1.9-2.1-3.5-2.1-3.5c-0.4-0.3-0.5-1-0.2-1.5c0,0,0.5-0.7,0.5-1.8
		c0-2-1.7-3.7-3.7-3.7c-0.7,0-1,0.1-1,0.1c-0.5,0.2-1.2,0-1.4-0.5c0,0-1.3-2.2-3.1-2.2c-1.6,0-2.9,1.7-2.9,1.7
		c-0.3,0.5-0.7,0.8-0.7,0.8c0,0,0,0-0.1,0c-2,0-3.7,1.7-3.7,3.7c0,0.2,0,0.2,0,0.2c0,0.2,0,0.3,0,0.3c0,0,0,0,0,0
		c-2,0-3.7,1.7-3.7,3.7c0,1.1,0.6,1.9,0.6,1.9c0.3,0.4,0.2,1.1-0.2,1.4c0,0-1.7,1.3-1.7,2.9c0,2,1.7,3.7,3.7,3.7c0.1,0,0.1,0,0.1,0
		c0.1,0,0.4,0.4,0.7,0.8c0,0,1.3,1.7,2.9,1.7c1,0,1.6-0.4,1.6-0.4c0.5-0.3,1.2-0.3,1.7,0c0,0,0.7,0.4,1.6,0.4c1.1,0,2-0.7,2-0.7
		c0.4-0.3,1.2-0.3,1.6,0c0,0,0.9,0.7,2,0.7c2,0,3.7-1.7,3.7-3.7c0-0.9-0.3-1.4-0.3-1.4c-0.3-0.5-0.2-1.2,0.3-1.5
		C108.7,63.4,110.5,61.8,110.5,60z"/>
	<g id="XMLID_14931_" class="st5">
		<polygon id="XMLID_15176_" class="st6" points="80.8,50.5 80.8,83.8 28.4,83.8 28.4,50.5 54.6,35 		"/>
		<polygon id="XMLID_14934_" class="st6" points="97.6,50.5 97.6,83.8 45.2,83.8 52.5,34.1 71.4,35 		"/>
		<polygon id="XMLID_14948_" class="st7" points="97.6,50.5 102.6,53.4 102.6,47.9 92.5,41.9 85.2,37.7 71.4,29.5 54.6,29.5 
			23.4,47.9 23.4,53.4 28.4,50.5 		"/>
		<g id="XMLID_14673_">
			<path id="XMLID_15171_" class="st8" d="M34.7,54.2v15.1h15.5V54.2H34.7z"/>
			<path id="XMLID_14995_" class="st7" d="M34.7,54.2v15.1h15.5V54.2H34.7z M49,61.2h-5.9v-5.7H49V61.2z M41.9,55.5v5.7H36v-5.7
				H41.9z M36,62.4h5.9v5.7H36V62.4z M43.1,68.1v-5.7H49v5.7H43.1z"/>
		</g>
		<g id="XMLID_14998_">
			<path id="XMLID_15006_" class="st8" d="M75.7,54.2v15.1h15.5V54.2H75.7z"/>
			<path id="XMLID_15000_" class="st7" d="M75.7,54.2v15.1h15.5V54.2H75.7z M90,61.2h-5.9v-5.7H90V61.2z M82.9,55.5v5.7H77v-5.7
				H82.9z M77,62.4h5.9v5.7H77V62.4z M84.1,68.1v-5.7H90v5.7H84.1z"/>
		</g>
		<g id="XMLID_14930_">
			<rect id="XMLID_15170_" x="55.2" y="54.2" class="st8" width="15.5" height="29.6"/>
			<path id="XMLID_14985_" class="st7" d="M55.2,54.2v29.6h15.5V54.2H55.2z M69.5,68.1h-5.9V55.5h5.9V68.1z M56.5,55.5h5.9v12.6
				h-5.9V55.5z"/>
		</g>
	</g>
	<path id="XMLID_14983_" class="st3" d="M37.1,60.6c0-1.9-2.1-3.5-2.1-3.5c-0.4-0.3-0.5-1-0.2-1.5c0,0,0.5-0.7,0.5-1.8
		c0-2-1.7-3.7-3.7-3.7c-0.7,0-1,0.1-1,0.1c-0.5,0.2-1.2,0-1.4-0.5c0,0-1.3-2.2-3.1-2.2c-1.6,0-2.9,1.7-2.9,1.7
		c-0.3,0.5-0.7,0.8-0.7,0.8c0,0,0,0-0.1,0c-2,0-3.7,1.7-3.7,3.7c0,0.2,0,0.2,0,0.2c0,0.2,0,0.3,0,0.3c0,0,0,0,0,0
		c-2,0-3.7,1.7-3.7,3.7c0,1.1,0.6,1.9,0.6,1.9c0.3,0.4,0.2,1.1-0.2,1.4c0,0-1.7,1.3-1.7,2.9c0,2,1.7,3.7,3.7,3.7c0.1,0,0.1,0,0.1,0
		c0.1,0,0.4,0.4,0.7,0.8c0,0,1.3,1.7,2.9,1.7c1,0,1.6-0.4,1.6-0.4c0.5-0.3,1.2-0.3,1.7,0c0,0,0.7,0.4,1.6,0.4c1.1,0,2-0.7,2-0.7
		c0.4-0.3,1.2-0.3,1.6,0c0,0,0.9,0.7,2,0.7c2,0,3.7-1.7,3.7-3.7c0-0.9-0.3-1.4-0.3-1.4c-0.3-0.5-0.2-1.2,0.3-1.5
		C35.3,63.9,37.1,62.4,37.1,60.6z"/>
	<path id="XMLID_14982_" class="st4" d="M30.1,68.8c-0.3,0.1-0.6-0.1-0.8-0.4c0,0-0.1-0.2-0.4-0.5c-1-0.8-2.4-0.6-3.2,0.4
		c-0.1,0.1-0.1,0.1-0.1,0.1c-0.1,0.1-0.4,0.3-0.6,0.3c0,0-0.7,0.1-1.1,0.7c-0.4,0.5-0.4,1.3-0.4,1.3c0,0.3,0,0.6-0.1,0.7
		c0,0,0,0-0.1,0.1c-0.8,1-0.6,2.4,0.4,3.2c0,0,0,0,0,0c0,0,0.1,0.3,0,0.6c0,0-0.1,1.4,0.7,2.1c0.7,0.6,2,0.3,2,0.3
		c0.3-0.1,0.8-0.1,1.1-0.1c0,0,1.6,0.1,2.2-0.7c0,0,0,0,0,0c0,0,0.3-0.1,0.6,0c0,0,1.4,0.1,2.1-0.7c0.8-1,0.6-2.4-0.4-3.2
		c0,0,0,0,0,0c-0.1,0,0.1-0.2,0.3-0.4c0,0,0,0,0.2-0.2c0.8-1,0.6-2.4-0.4-3.2C31.3,68.5,30.1,68.8,30.1,68.8z"/>
	<g id="XMLID_6953_" class="st5">
		<polygon id="XMLID_6992_" class="st7" points="49.1,78.1 51.5,75.7 53.8,78.1 53.8,87.4 49.1,87.4 		"/>
		<polygon id="XMLID_6989_" class="st7" points="42,78.1 44.4,75.7 46.7,78.1 46.7,87.4 42,87.4 		"/>
		<polygon id="XMLID_6988_" class="st7" points="35,78.1 37.3,75.7 39.7,78.1 39.7,87.4 35,87.4 		"/>
		<polygon id="XMLID_6987_" class="st7" points="27.9,78.1 30.2,75.7 32.6,78.1 32.6,87.4 27.9,87.4 		"/>
		<polygon id="XMLID_6959_" class="st7" points="20.8,78.1 23.2,75.7 25.5,78.1 25.5,87.4 20.8,87.4 		"/>
		<rect id="XMLID_6955_" x="20.8" y="80.9" class="st9" width="33" height="3"/>
	</g>
	<g id="XMLID_6994_" class="st5">
		<polygon id="XMLID_14947_" class="st7" points="100.8,78.1 103.1,75.7 105.5,78.1 105.5,87.4 100.8,87.4 		"/>
		<polygon id="XMLID_14943_" class="st7" points="93.7,78.1 96.1,75.7 98.4,78.1 98.4,87.4 93.7,87.4 		"/>
		<polygon id="XMLID_7006_" class="st7" points="86.6,78.1 89,75.7 91.4,78.1 91.4,87.4 86.6,87.4 		"/>
		<polygon id="XMLID_6998_" class="st7" points="79.6,78.1 81.9,75.7 84.3,78.1 84.3,87.4 79.6,87.4 		"/>
		<polygon id="XMLID_6997_" class="st7" points="72.5,78.1 74.8,75.7 77.2,78.1 77.2,87.4 72.5,87.4 		"/>
		<rect id="XMLID_6995_" x="72.5" y="80.9" class="st9" width="33" height="3"/>
	</g>
</g>
</svg>
