<?xml version="1.0" encoding="utf-8"?>
<!-- Generator: Adobe Illustrator 19.0.0, SVG Export Plug-In . SVG Version: 6.00 Build 0)  -->
<svg version="1.1" id="Layer_1" xmlns="http://www.w3.org/2000/svg" xmlns:xlink="http://www.w3.org/1999/xlink" x="0px" y="0px"
	 viewBox="0 0 126 126" style="enable-background:new 0 0 126 126;" xml:space="preserve">
<style type="text/css">
	.st0{clip-path:url(#XMLID_15_);fill:url(#XMLID_16_);}
	.st1{clip-path:url(#XMLID_15_);fill:url(#XMLID_17_);}
	.st2{clip-path:url(#XMLID_15_);fill:url(#XMLID_18_);}
	.st3{clip-path:url(#XMLID_15_);fill:url(#XMLID_19_);}
	.st4{clip-path:url(#XMLID_15_);fill:url(#XMLID_20_);}
	.st5{clip-path:url(#XMLID_15_);fill:url(#XMLID_21_);}
	.st6{clip-path:url(#XMLID_15_);fill:url(#XMLID_22_);}
	.st7{clip-path:url(#XMLID_15_);fill:#5D8039;}
	.st8{clip-path:url(#XMLID_15_);fill:#84A355;}
	.st9{clip-path:url(#XMLID_15_);}
	.st10{fill:#4A708E;}
	.st11{fill:#E6E6E5;}
	.st12{fill:#91CCF0;}
	.st13{fill:#E46A5E;}
	.st14{fill:#5A84A1;}
	.st15{fill:#F0EFEF;}
	.st16{fill:#325072;}
</style>
<g id="XMLID_14933_">
	<defs>
		<circle id="XMLID_14935_" cx="63" cy="63" r="63"/>
	</defs>
	<use xlink:href="#XMLID_14935_"  style="overflow:visible;fill:#EABB22;"/>
	<clipPath id="XMLID_15_">
		<use xlink:href="#XMLID_14935_"  style="overflow:visible;"/>
	</clipPath>
	<linearGradient id="XMLID_16_" gradientUnits="userSpaceOnUse" x1="67.6334" y1="37.3255" x2="123.6846" y2="98.0476">
		<stop  offset="0" style="stop-color:#D3AB3C"/>
		<stop  offset="1" style="stop-color:#EABB22"/>
	</linearGradient>
	<polygon id="XMLID_15152_" class="st0" points="84.4,76.9 42.6,35.1 84.5,34.3 127.1,76.8 	"/>
	<linearGradient id="XMLID_17_" gradientUnits="userSpaceOnUse" x1="68.4001" y1="53.1371" x2="108.3861" y2="96.4552">
		<stop  offset="0" style="stop-color:#D3AB3C"/>
		<stop  offset="1" style="stop-color:#EABB22"/>
	</linearGradient>
	<polygon id="XMLID_15151_" class="st1" points="69.5,99.7 27.7,57.9 102.8,48.8 153.7,96.7 	"/>
	<linearGradient id="XMLID_18_" gradientUnits="userSpaceOnUse" x1="77.588" y1="64.5312" x2="117.574" y2="107.8494">
		<stop  offset="0" style="stop-color:#D3AB3C"/>
		<stop  offset="1" style="stop-color:#EABB22"/>
	</linearGradient>
	<polygon id="XMLID_15150_" class="st2" points="78.7,111.1 36.9,69.3 112,60.2 162.8,108.1 	"/>
	<linearGradient id="XMLID_19_" gradientUnits="userSpaceOnUse" x1="65.7507" y1="71.6229" x2="106.708" y2="115.9933">
		<stop  offset="0" style="stop-color:#D3AB3C"/>
		<stop  offset="1" style="stop-color:#EABB22"/>
	</linearGradient>
	<polygon id="XMLID_15149_" class="st3" points="67,117.8 25.2,76.1 108.6,75.2 151.1,115.8 	"/>
	<linearGradient id="XMLID_20_" gradientUnits="userSpaceOnUse" x1="51.035" y1="65.3726" x2="125.0316" y2="145.5355">
		<stop  offset="0" style="stop-color:#D3AB3C"/>
		<stop  offset="1" style="stop-color:#EABB22"/>
	</linearGradient>
	<polygon id="XMLID_15148_" class="st4" points="52.5,110.9 10.8,69.1 94.1,68.3 136.7,110.9 	"/>
	<linearGradient id="XMLID_21_" gradientUnits="userSpaceOnUse" x1="58.8202" y1="75.1808" x2="131.88" y2="154.3289">
		<stop  offset="0" style="stop-color:#D3AB3C"/>
		<stop  offset="1" style="stop-color:#EABB22"/>
	</linearGradient>
	<polygon id="XMLID_15147_" class="st5" points="60,121.4 18.3,79.6 101.6,78.8 144.2,119.4 	"/>
	<linearGradient id="XMLID_22_" gradientUnits="userSpaceOnUse" x1="78.2578" y1="86.5845" x2="94.2711" y2="141.9176">
		<stop  offset="0" style="stop-color:#D3AB3C"/>
		<stop  offset="1" style="stop-color:#EABB22"/>
	</linearGradient>
	<polygon id="XMLID_15146_" class="st6" points="63.3,128.9 20.7,86.4 23.2,83.6 102.7,83.6 104.9,86.3 147.4,126.9 	"/>
	<path id="XMLID_15145_" class="st7" d="M32.4,63.7c0-1.8-2-3.3-2-3.3c-0.4-0.3-0.5-1-0.2-1.4c0,0,0.5-0.7,0.5-1.7
		c0-1.9-1.6-3.5-3.5-3.5c-0.7,0-1,0.1-1,0.1c-0.5,0.2-1.1,0-1.4-0.4c0,0-1.2-2.1-3-2.1c-1.6,0-2.8,1.7-2.8,1.7
		c-0.3,0.4-0.6,0.8-0.7,0.8c0,0,0,0-0.1,0c-1.9,0-3.5,1.6-3.5,3.5c0,0.2,0,0.2,0,0.2c0,0.2,0,0.3,0,0.3c0,0,0,0,0,0
		c-1.9,0-3.5,1.6-3.5,3.5c0,1,0.6,1.8,0.6,1.8c0.3,0.4,0.2,1-0.2,1.3c0,0-1.6,1.2-1.6,2.7c0,1.9,1.6,3.5,3.5,3.5c0.1,0,0.1,0,0.1,0
		c0.1,0,0.4,0.3,0.7,0.8c0,0,1.2,1.7,2.8,1.7c0.9,0,1.5-0.4,1.5-0.4c0.4-0.3,1.2-0.3,1.6,0c0,0,0.6,0.4,1.5,0.4
		c1.1,0,1.9-0.6,1.9-0.6c0.4-0.3,1.1-0.3,1.5,0c0,0,0.8,0.6,1.9,0.6c1.9,0,3.5-1.6,3.5-3.5c0-0.8-0.3-1.3-0.3-1.3
		c-0.3-0.5-0.2-1.1,0.3-1.5C30.6,66.9,32.4,65.4,32.4,63.7z"/>
	<path id="XMLID_15144_" class="st8" d="M24.7,71.2c-0.3,0.1-0.7-0.1-0.8-0.4c0,0-0.1-0.2-0.5-0.5c-1-0.8-2.5-0.6-3.3,0.4
		C20,70.9,20,70.9,20,70.9c-0.1,0.1-0.4,0.3-0.7,0.3c0,0-0.8,0.1-1.2,0.7s-0.4,1.3-0.4,1.3c0,0.3-0.1,0.6-0.2,0.7c0,0,0,0-0.1,0.1
		c-0.8,1-0.6,2.5,0.4,3.3c0,0,0,0,0,0c0,0,0.1,0.3,0,0.6c0,0-0.1,1.5,0.8,2.2c0.8,0.6,2.1,0.3,2.1,0.3c0.3-0.1,0.8-0.1,1.1-0.1
		c0,0,1.6,0.2,2.3-0.7c0,0,0,0,0,0c0,0,0.3-0.1,0.6,0c0,0,1.5,0.1,2.2-0.8c0.8-1,0.6-2.5-0.4-3.3c0,0,0,0,0,0
		c-0.1,0,0.1-0.2,0.4-0.4c0,0,0,0,0.2-0.2c0.8-1,0.6-2.5-0.4-3.3C25.9,70.9,24.7,71.2,24.7,71.2z"/>
	<g id="XMLID_15010_" class="st9">
		<polygon id="XMLID_15143_" class="st10" points="108.5,57.5 17.4,57.5 23.5,48.4 102.4,48.4 		"/>
		<rect id="XMLID_15142_" x="21" y="80.3" class="st10" width="83.8" height="3.2"/>
		<rect id="XMLID_15141_" x="22.3" y="57.5" class="st11" width="81.3" height="22.8"/>
		<g id="XMLID_15104_">
			<g id="XMLID_15132_">
				<path id="XMLID_15139_" class="st12" d="M82,59.8v7.5h7.7v-7.5H82z"/>
				<path id="XMLID_15133_" class="st13" d="M82,59.8v7.5h7.7v-7.5H82z M89.1,63.3h-2.9v-2.8h2.9V63.3z M85.5,60.5v2.8h-2.9v-2.8
					H85.5z M82.6,63.9h2.9v2.8h-2.9V63.9z M86.2,66.7v-2.8h2.9v2.8H86.2z"/>
			</g>
			<g id="XMLID_15123_">
				<path id="XMLID_15130_" class="st12" d="M82,70.2v7.5h7.7v-7.5H82z"/>
				<path id="XMLID_15124_" class="st13" d="M82,70.2v7.5h7.7v-7.5H82z M89.1,73.6h-2.9v-2.8h2.9V73.6z M85.5,70.8v2.8h-2.9v-2.8
					H85.5z M82.6,74.2h2.9v2.8h-2.9V74.2z M86.2,77.1v-2.8h2.9v2.8H86.2z"/>
			</g>
			<g id="XMLID_15114_">
				<path id="XMLID_15121_" class="st12" d="M93.1,59.8v7.5h7.7v-7.5H93.1z"/>
				<path id="XMLID_15115_" class="st13" d="M93.1,59.8v7.5h7.7v-7.5H93.1z M100.2,63.3h-2.9v-2.8h2.9V63.3z M96.7,60.5v2.8h-2.9
					v-2.8H96.7z M93.7,63.9h2.9v2.8h-2.9V63.9z M97.3,66.7v-2.8h2.9v2.8H97.3z"/>
			</g>
			<g id="XMLID_15105_">
				<path id="XMLID_15112_" class="st12" d="M93.1,70.2v7.5h7.7v-7.5H93.1z"/>
				<path id="XMLID_15106_" class="st13" d="M93.1,70.2v7.5h7.7v-7.5H93.1z M100.2,73.6h-2.9v-2.8h2.9V73.6z M96.7,70.8v2.8h-2.9
					v-2.8H96.7z M93.7,74.2h2.9v2.8h-2.9V74.2z M97.3,77.1v-2.8h2.9v2.8H97.3z"/>
			</g>
		</g>
		<g id="XMLID_15067_">
			<g id="XMLID_15095_">
				<path id="XMLID_15102_" class="st12" d="M25.1,59.8v7.5h7.7v-7.5H25.1z"/>
				<path id="XMLID_15096_" class="st13" d="M25.1,59.8v7.5h7.7v-7.5H25.1z M32.2,63.3h-2.9v-2.8h2.9V63.3z M28.6,60.5v2.8h-2.9
					v-2.8H28.6z M25.7,63.9h2.9v2.8h-2.9V63.9z M29.3,66.7v-2.8h2.9v2.8H29.3z"/>
			</g>
			<g id="XMLID_15086_">
				<path id="XMLID_15093_" class="st12" d="M25.1,70.2v7.5h7.7v-7.5H25.1z"/>
				<path id="XMLID_15087_" class="st13" d="M25.1,70.2v7.5h7.7v-7.5H25.1z M32.2,73.6h-2.9v-2.8h2.9V73.6z M28.6,70.8v2.8h-2.9
					v-2.8H28.6z M25.7,74.2h2.9v2.8h-2.9V74.2z M29.3,77.1v-2.8h2.9v2.8H29.3z"/>
			</g>
			<g id="XMLID_15077_">
				<path id="XMLID_15084_" class="st12" d="M36.2,59.8v7.5h7.7v-7.5H36.2z"/>
				<path id="XMLID_15078_" class="st13" d="M36.2,59.8v7.5h7.7v-7.5H36.2z M43.3,63.3h-2.9v-2.8h2.9V63.3z M39.8,60.5v2.8h-2.9
					v-2.8H39.8z M36.8,63.9h2.9v2.8h-2.9V63.9z M40.4,66.7v-2.8h2.9v2.8H40.4z"/>
			</g>
			<g id="XMLID_15068_">
				<path id="XMLID_15075_" class="st12" d="M36.2,70.2v7.5h7.7v-7.5H36.2z"/>
				<path id="XMLID_15069_" class="st13" d="M36.2,70.2v7.5h7.7v-7.5H36.2z M43.3,73.6h-2.9v-2.8h2.9V73.6z M39.8,70.8v2.8h-2.9
					v-2.8H39.8z M36.8,74.2h2.9v2.8h-2.9V74.2z M40.4,77.1v-2.8h2.9v2.8H40.4z"/>
			</g>
		</g>
		<g id="XMLID_15011_">
			<polyline id="XMLID_15066_" class="st14" points="84.5,34.3 91.9,46.6 34.1,46.6 41.4,34.3 			"/>
			<rect id="XMLID_15065_" x="38.7" y="46.6" class="st15" width="48.6" height="33.7"/>
			<rect id="XMLID_15064_" x="37.4" y="80.3" class="st14" width="51" height="3.2"/>
			<g id="XMLID_15055_">
				<path id="XMLID_15062_" class="st12" d="M57.7,49.1v10.2h10.5V49.1H57.7z"/>
				<path id="XMLID_15056_" class="st13" d="M57.7,49.1v10.2h10.5V49.1H57.7z M67.4,53.8h-4v-3.9h4V53.8z M62.5,49.9v3.9h-4v-3.9
					H62.5z M58.5,54.6h4v3.9h-4V54.6z M63.4,58.5v-3.9h4v3.9H63.4z"/>
			</g>
			<g id="XMLID_15048_">
				<path id="XMLID_15053_" class="st12" d="M57.7,64.1v10.2h10.5V64.1H57.7z"/>
				<path id="XMLID_15049_" class="st13" d="M57.7,64.1v16.2h10.5V64.1H57.7z M63.4,64.9h4v8.5h-4V64.9z M58.5,64.9h4v8.5h-4V64.9z"
					/>
			</g>
			<g id="XMLID_15039_">
				<path id="XMLID_15046_" class="st12" d="M72.8,49.1v10.2h10.5V49.1H72.8z"/>
				<path id="XMLID_15040_" class="st13" d="M72.8,49.1v10.2h10.5V49.1H72.8z M82.5,53.8h-4v-3.9h4V53.8z M77.7,49.9v3.9h-4v-3.9
					H77.7z M73.7,54.6h4v3.9h-4V54.6z M78.5,58.5v-3.9h4v3.9H78.5z"/>
			</g>
			<g id="XMLID_15030_">
				<path id="XMLID_15037_" class="st12" d="M42.6,49.1v10.2h10.5V49.1H42.6z"/>
				<path id="XMLID_15031_" class="st13" d="M42.6,49.1v10.2h10.5V49.1H42.6z M52.2,53.8h-4v-3.9h4V53.8z M47.4,49.9v3.9h-4v-3.9
					H47.4z M43.4,54.6h4v3.9h-4V54.6z M48.2,58.5v-3.9h4v3.9H48.2z"/>
			</g>
			<g id="XMLID_15021_">
				<path id="XMLID_15028_" class="st12" d="M72.8,64.1v10.2h10.5V64.1H72.8z"/>
				<path id="XMLID_15022_" class="st13" d="M72.8,64.1v10.2h10.5V64.1H72.8z M82.5,68.8h-4v-3.9h4V68.8z M77.7,64.9v3.9h-4v-3.9
					H77.7z M73.7,69.6h4v3.9h-4V69.6z M78.5,73.5v-3.9h4v3.9H78.5z"/>
			</g>
			<g id="XMLID_15012_">
				<path id="XMLID_15019_" class="st12" d="M42.6,64.1v10.2h10.5V64.1H42.6z"/>
				<path id="XMLID_15013_" class="st13" d="M42.6,64.1v10.2h10.5V64.1H42.6z M52.2,68.8h-4v-3.9h4V68.8z M47.4,64.9v3.9h-4v-3.9
					H47.4z M43.4,69.6h4v3.9h-4V69.6z M48.2,73.5v-3.9h4v3.9H48.2z"/>
			</g>
		</g>
	</g>
	<path id="XMLID_15009_" class="st7" d="M85.9,77c0-1.1-1.2-2.1-1.2-2.1c-0.3-0.2-0.3-0.6-0.1-0.9c0,0,0.3-0.5,0.3-1.1
		c0-1.2-1-2.2-2.2-2.2c-0.4,0-0.6,0.1-0.6,0.1c-0.3,0.1-0.7,0-0.9-0.3c0,0-0.8-1.4-1.9-1.4c-1,0-1.8,1.1-1.8,1.1
		c-0.2,0.3-0.4,0.5-0.4,0.5c0,0,0,0,0,0c-1.2,0-2.2,1-2.2,2.2c0,0.1,0,0.1,0,0.1c0,0.1,0,0.2,0,0.2c0,0,0,0,0,0
		c-1.2,0-2.2,1-2.2,2.2c0,0.7,0.4,1.2,0.4,1.2c0.2,0.3,0.1,0.7-0.1,0.9c0,0-1,0.8-1,1.7c0,1.2,1,2.2,2.2,2.2c0,0,0,0,0,0
		c0,0,0.2,0.2,0.4,0.5c0,0,0.8,1.1,1.8,1.1c0.6,0,1-0.3,1-0.3c0.3-0.2,0.8-0.2,1,0c0,0,0.4,0.3,1,0.3c0.7,0,1.2-0.4,1.2-0.4
		c0.3-0.2,0.7-0.2,1,0c0,0,0.5,0.4,1.2,0.4c1.2,0,2.2-1,2.2-2.2c0-0.5-0.2-0.9-0.2-0.9c-0.2-0.3-0.1-0.7,0.2-0.9
		C84.8,79,85.9,78.1,85.9,77z"/>
	<path id="XMLID_15008_" class="st7" d="M54.2,77c0-1.1-1.2-2.1-1.2-2.1c-0.3-0.2-0.3-0.6-0.1-0.9c0,0,0.3-0.5,0.3-1.1
		c0-1.2-1-2.2-2.2-2.2c-0.4,0-0.6,0.1-0.6,0.1c-0.3,0.1-0.7,0-0.9-0.3c0,0-0.8-1.4-1.9-1.4c-1,0-1.8,1.1-1.8,1.1
		c-0.2,0.3-0.4,0.5-0.4,0.5c0,0,0,0,0,0c-1.2,0-2.2,1-2.2,2.2c0,0.1,0,0.1,0,0.1c0,0.1,0,0.2,0,0.2c0,0,0,0,0,0
		c-1.2,0-2.2,1-2.2,2.2c0,0.7,0.4,1.2,0.4,1.2c0.2,0.3,0.1,0.7-0.1,0.9c0,0-1,0.8-1,1.7c0,1.2,1,2.2,2.2,2.2c0,0,0,0,0,0
		c0,0,0.2,0.2,0.4,0.5c0,0,0.8,1.1,1.8,1.1c0.6,0,1-0.3,1-0.3c0.3-0.2,0.8-0.2,1,0c0,0,0.4,0.3,1,0.3c0.7,0,1.2-0.4,1.2-0.4
		c0.3-0.2,0.7-0.2,1,0c0,0,0.5,0.4,1.2,0.4c1.2,0,2.2-1,2.2-2.2c0-0.5-0.2-0.9-0.2-0.9c-0.2-0.3-0.1-0.7,0.2-0.9
		C53.1,79,54.2,78.1,54.2,77z"/>
	<path id="XMLID_14981_" class="st8" d="M53.2,77.9c-0.2,0.1-0.6-0.1-0.7-0.3c0,0-0.1-0.2-0.4-0.4c-0.9-0.7-2.1-0.5-2.7,0.4
		c-0.1,0.1-0.1,0.1-0.1,0.1c-0.1,0.1-0.3,0.2-0.6,0.3c0,0-0.6,0.1-1,0.6s-0.3,1.1-0.3,1.1c0,0.3,0,0.5-0.1,0.6c0,0,0,0-0.1,0.1
		c-0.7,0.9-0.5,2.1,0.4,2.7c0,0,0,0,0,0c0,0,0,0.2,0,0.5c0,0-0.1,1.2,0.6,1.8c0.6,0.5,1.7,0.3,1.7,0.3c0.2-0.1,0.7-0.1,0.9-0.1
		c0,0,1.4,0.1,1.9-0.6c0,0,0,0,0,0c0,0,0.2,0,0.5,0c0,0,1.2,0.1,1.8-0.6c0.7-0.9,0.5-2.1-0.4-2.7c0,0,0,0,0,0c0,0,0.1-0.2,0.3-0.3
		c0,0,0,0,0.2-0.2c0.7-0.9,0.5-2.1-0.4-2.7C54.3,77.7,53.2,77.9,53.2,77.9z"/>
	<path id="XMLID_14979_" class="st8" d="M76.9,77.9c-0.2,0.1-0.6-0.1-0.7-0.3c0,0-0.1-0.2-0.4-0.4c-0.9-0.7-2.1-0.5-2.7,0.4
		c-0.1,0.1-0.1,0.1-0.1,0.1c-0.1,0.1-0.3,0.2-0.6,0.3c0,0-0.6,0.1-1,0.6c-0.4,0.5-0.3,1.1-0.3,1.1c0,0.3,0,0.5-0.1,0.6
		c0,0,0,0-0.1,0.1c-0.7,0.9-0.5,2.1,0.4,2.7c0,0,0,0,0,0c0,0,0,0.2,0,0.5c0,0-0.1,1.2,0.6,1.8c0.6,0.5,1.7,0.3,1.7,0.3
		c0.2-0.1,0.7-0.1,0.9-0.1c0,0,1.4,0.1,1.9-0.6c0,0,0,0,0,0c0,0,0.2,0,0.5,0c0,0,1.2,0.1,1.8-0.6c0.7-0.9,0.5-2.1-0.4-2.7
		c0,0,0,0,0,0c0,0,0.1-0.2,0.3-0.3c0,0,0,0,0.2-0.2c0.7-0.9,0.5-2.1-0.4-2.7C78,77.7,76.9,77.9,76.9,77.9z"/>
	<g id="XMLID_14952_" class="st9">
		<polygon id="XMLID_14978_" class="st13" points="45.7,79.8 47.4,78.1 49.1,79.8 49.1,86.3 45.7,86.3 		"/>
		<polygon id="XMLID_14958_" class="st13" points="40.7,79.8 42.4,78.1 44.1,79.8 44.1,86.3 40.7,86.3 		"/>
		<polygon id="XMLID_14957_" class="st13" points="35.7,79.8 37.4,78.1 39.1,79.8 39.1,86.3 35.7,86.3 		"/>
		<polygon id="XMLID_14956_" class="st13" points="30.7,79.8 32.4,78.1 34,79.8 34,86.3 30.7,86.3 		"/>
		<polygon id="XMLID_14955_" class="st13" points="25.7,79.8 27.4,78.1 29,79.8 29,86.3 25.7,86.3 		"/>
		<polygon id="XMLID_14954_" class="st13" points="20.7,79.8 22.4,78.1 24,79.8 24,86.3 20.7,86.3 		"/>
		<rect id="XMLID_14953_" x="20.7" y="81.8" class="st16" width="28.4" height="2.1"/>
	</g>
	<path id="XMLID_14951_" class="st7" d="M114.6,67.7c0-1.6-1.7-2.9-1.7-2.9c-0.4-0.3-0.5-0.8-0.2-1.2c0,0,0.4-0.6,0.4-1.5
		c0-1.7-1.4-3.1-3.1-3.1c-0.6,0-0.9,0.1-0.9,0.1c-0.4,0.2-1,0-1.2-0.4c0,0-1.1-1.9-2.6-1.9c-1.4,0-2.4,1.4-2.4,1.4
		c-0.3,0.4-0.5,0.7-0.6,0.7c0,0,0,0-0.1,0c-1.7,0-3.1,1.4-3.1,3.1c0,0.1,0,0.1,0,0.1c0,0.2,0,0.3,0,0.3c0,0,0,0,0,0
		c-1.7,0-3.1,1.4-3.1,3.1c0,0.9,0.5,1.6,0.5,1.6c0.3,0.4,0.2,0.9-0.2,1.2c0,0-1.4,1-1.4,2.4c0,1.7,1.4,3.1,3.1,3.1
		c0.1,0,0.1,0,0.1,0c0.1,0,0.3,0.3,0.6,0.7c0,0,1,1.4,2.4,1.4c0.8,0,1.3-0.4,1.3-0.4c0.4-0.3,1-0.3,1.4,0c0,0,0.6,0.4,1.3,0.4
		c0.9,0,1.7-0.6,1.7-0.6c0.4-0.3,1-0.3,1.3,0c0,0,0.7,0.6,1.7,0.6c1.7,0,3.1-1.4,3.1-3.1c0-0.7-0.3-1.2-0.3-1.2
		c-0.2-0.4-0.1-1,0.2-1.3C113.1,70.4,114.6,69.1,114.6,67.7z"/>
	<path id="XMLID_14950_" class="st8" d="M105.9,73.4c-0.3,0.1-0.7-0.1-0.8-0.4c0,0-0.1-0.2-0.5-0.5c-1-0.8-2.5-0.6-3.3,0.4
		c-0.1,0.1-0.1,0.1-0.1,0.1c-0.1,0.1-0.4,0.3-0.7,0.3c0,0-0.8,0.1-1.2,0.7C99,74.7,99,75.5,99,75.5c0,0.3-0.1,0.6-0.2,0.7
		c0,0,0,0-0.1,0.1c-0.8,1-0.6,2.5,0.4,3.3c0,0,0,0,0,0c0,0,0.1,0.3,0,0.6c0,0-0.1,1.5,0.8,2.2c0.8,0.6,2.1,0.3,2.1,0.3
		c0.3-0.1,0.8-0.1,1.1-0.1c0,0,1.6,0.2,2.3-0.7c0,0,0,0,0,0c0,0,0.3-0.1,0.6,0c0,0,1.5,0.1,2.2-0.8c0.8-1,0.6-2.5-0.4-3.3
		c0,0,0,0,0,0c-0.1,0,0.1-0.2,0.4-0.4c0,0,0,0,0.2-0.2c0.8-1,0.6-2.5-0.4-3.3C107.2,73.2,105.9,73.4,105.9,73.4z"/>
	<g id="XMLID_14936_" class="st9">
		<polygon id="XMLID_14949_" class="st13" points="101.5,79.8 103.2,78.1 104.9,79.8 104.9,86.3 101.5,86.3 		"/>
		<polygon id="XMLID_14942_" class="st13" points="96.5,79.8 98.2,78.1 99.9,79.8 99.9,86.3 96.5,86.3 		"/>
		<polygon id="XMLID_14941_" class="st13" points="91.5,79.8 93.2,78.1 94.9,79.8 94.9,86.3 91.5,86.3 		"/>
		<polygon id="XMLID_14940_" class="st13" points="86.5,79.8 88.2,78.1 89.9,79.8 89.9,86.3 86.5,86.3 		"/>
		<polygon id="XMLID_14939_" class="st13" points="81.5,79.8 83.2,78.1 84.8,79.8 84.8,86.3 81.5,86.3 		"/>
		<polygon id="XMLID_14938_" class="st13" points="76.5,79.8 78.2,78.1 79.8,79.8 79.8,86.3 76.5,86.3 		"/>
		<rect id="XMLID_14937_" x="76.5" y="81.8" class="st16" width="28.4" height="2.1"/>
	</g>
</g>
</svg>
