<?xml version="1.0" encoding="utf-8"?>
<!-- Generator: Adobe Illustrator 19.0.0, SVG Export Plug-In . SVG Version: 6.00 Build 0)  -->
<svg version="1.1" id="Layer_1" xmlns="http://www.w3.org/2000/svg" xmlns:xlink="http://www.w3.org/1999/xlink" x="0px" y="0px"
	 viewBox="0 0 126 126" style="enable-background:new 0 0 126 126;" xml:space="preserve">
<style type="text/css">
	.st0{clip-path:url(#XMLID_15_);fill:url(#XMLID_16_);}
	.st1{clip-path:url(#XMLID_15_);fill:url(#XMLID_17_);}
	.st2{clip-path:url(#XMLID_15_);fill:url(#XMLID_18_);}
	.st3{clip-path:url(#XMLID_15_);fill:url(#XMLID_19_);}
	.st4{clip-path:url(#XMLID_15_);}
	.st5{fill:#5D8039;}
	.st6{fill:#E6E6E5;}
	.st7{fill:#E46A5E;}
	.st8{fill:#EABB22;}
	.st9{fill:#91CCF0;}
	.st10{fill:#84A355;}
	.st11{fill:#D3AB3C;}
	.st12{clip-path:url(#XMLID_15_);fill:url(#XMLID_20_);}
</style>
<g id="XMLID_14891_">
	<defs>
		<circle id="XMLID_14892_" cx="63" cy="63" r="63"/>
	</defs>
	<use xlink:href="#XMLID_14892_"  style="overflow:visible;fill:#5984A1;"/>
	<clipPath id="XMLID_15_">
		<use xlink:href="#XMLID_14892_"  style="overflow:visible;"/>
	</clipPath>
	<linearGradient id="XMLID_16_" gradientUnits="userSpaceOnUse" x1="55.6043" y1="59.8033" x2="121.535" y2="123.9758">
		<stop  offset="0" style="stop-color:#4A708E"/>
		<stop  offset="1" style="stop-color:#5984A1"/>
	</linearGradient>
	<polygon id="XMLID_14929_" class="st0" points="59,96.3 23.4,60.7 90.7,60.7 136.8,106.9 	"/>
	<linearGradient id="XMLID_17_" gradientUnits="userSpaceOnUse" x1="63.9764" y1="81.7368" x2="132.8979" y2="148.8205">
		<stop  offset="0" style="stop-color:#4A708E"/>
		<stop  offset="1" style="stop-color:#5984A1"/>
	</linearGradient>
	<polygon id="XMLID_14928_" class="st1" points="65,119.2 29.4,83.7 103.7,83.9 149.8,130 	"/>
	<linearGradient id="XMLID_18_" gradientUnits="userSpaceOnUse" x1="85.6942" y1="47.2229" x2="123.6256" y2="84.1429">
		<stop  offset="0" style="stop-color:#4A708E"/>
		<stop  offset="1" style="stop-color:#5984A1"/>
	</linearGradient>
	<polygon id="XMLID_14927_" class="st2" points="110.5,88.4 74.9,52.8 85,29.5 131.1,75.7 	"/>
	<linearGradient id="XMLID_19_" gradientUnits="userSpaceOnUse" x1="99.4244" y1="72.2336" x2="137.3559" y2="109.1535">
		<stop  offset="0" style="stop-color:#4A708E"/>
		<stop  offset="1" style="stop-color:#5984A1"/>
	</linearGradient>
	<polygon id="XMLID_14926_" class="st3" points="122.3,113 86.8,77.4 99.4,53.8 145.6,99.9 	"/>
	<g id="XMLID_14894_" class="st4">
		<path id="XMLID_14925_" class="st5" d="M46.7,55.2c0-1.9-2.1-3.5-2.1-3.5c-0.4-0.3-0.5-1-0.2-1.5c0,0,0.5-0.7,0.5-1.8
			c0-2-1.7-3.7-3.7-3.7c-0.7,0-1,0.1-1,0.1c-0.5,0.2-1.2,0-1.4-0.5c0,0-1.3-2.2-3.1-2.2c-1.6,0-2.9,1.7-2.9,1.7
			c-0.3,0.5-0.7,0.8-0.7,0.8c0,0,0,0-0.1,0c-2,0-3.7,1.7-3.7,3.7c0,0.2,0,0.2,0,0.2c0,0.2,0,0.3,0,0.3c0,0,0,0,0,0
			c-2,0-3.7,1.7-3.7,3.7c0,1.1,0.6,1.9,0.6,1.9c0.3,0.4,0.2,1.1-0.2,1.4c0,0-1.7,1.3-1.7,2.9c0,2,1.7,3.7,3.7,3.7c0.1,0,0.1,0,0.1,0
			c0.1,0,0.4,0.4,0.7,0.8c0,0,1.3,1.7,2.9,1.7c1,0,1.6-0.4,1.6-0.4c0.5-0.3,1.2-0.3,1.7,0c0,0,0.7,0.4,1.6,0.4c1.1,0,2-0.7,2-0.7
			c0.4-0.3,1.2-0.3,1.6,0c0,0,0.9,0.7,2,0.7c2,0,3.7-1.7,3.7-3.7c0-0.9-0.3-1.4-0.3-1.4c-0.3-0.5-0.2-1.2,0.3-1.5
			C44.9,58.6,46.7,57,46.7,55.2z"/>
		<polygon id="XMLID_14924_" class="st6" points="88.8,50.5 88.8,83.8 36.4,83.8 36.4,50.5 62.6,35 		"/>
		<polygon id="XMLID_14923_" class="st7" points="93.8,47.9 93.8,53.4 88.8,50.5 62.6,35 36.4,50.5 31.4,53.4 31.4,47.9 62.6,29.5 
			76.5,37.7 83.8,41.9 		"/>
		<polygon id="XMLID_14922_" class="st8" points="83.8,32.6 83.8,41.9 76.5,37.7 76.5,32.6 		"/>
		<rect id="XMLID_14921_" x="75.2" y="29.5" class="st7" width="9.9" height="3.1"/>
		<path id="XMLID_14919_" class="st9" d="M66.7,54.2v15.1h15.5V54.2H66.7z"/>
		<rect id="XMLID_14918_" x="41.8" y="54.2" class="st9" width="15.5" height="29.6"/>
		<path id="XMLID_14912_" class="st7" d="M66.7,54.2v15.1h15.5V54.2H66.7z M80.9,61.2h-5.9v-5.7h5.9V61.2z M73.8,55.5v5.7h-5.9v-5.7
			H73.8z M67.9,62.4h5.9v5.7h-5.9V62.4z M75.1,68.1v-5.7h5.9v5.7H75.1z"/>
		<path id="XMLID_14908_" class="st7" d="M41.8,54.2v29.6h15.5V54.2H41.8z M56,68.1h-5.9V55.5H56V68.1z M43,55.5h5.9v12.6H43V55.5z"
			/>
		<path id="XMLID_14907_" class="st5" d="M103.2,63.5c0-1.9-2.1-3.5-2.1-3.5c-0.4-0.3-0.5-1-0.2-1.5c0,0,0.5-0.7,0.5-1.8
			c0-2-1.7-3.7-3.7-3.7c-0.7,0-1,0.1-1,0.1c-0.5,0.2-1.2,0-1.4-0.5c0,0-1.3-2.2-3.1-2.2c-1.6,0-2.9,1.7-2.9,1.7
			c-0.3,0.5-0.7,0.8-0.7,0.8c0,0,0,0-0.1,0c-2,0-3.7,1.7-3.7,3.7c0,0.2,0,0.2,0,0.2c0,0.2,0,0.3,0,0.3c0,0,0,0,0,0
			c-2,0-3.7,1.7-3.7,3.7c0,1.1,0.6,1.9,0.6,1.9c0.3,0.4,0.2,1.1-0.2,1.4c0,0-1.7,1.3-1.7,2.9c0,2,1.7,3.7,3.7,3.7c0.1,0,0.1,0,0.1,0
			c0.1,0,0.4,0.4,0.7,0.8c0,0,1.3,1.7,2.9,1.7c1,0,1.6-0.4,1.6-0.4c0.5-0.3,1.2-0.3,1.7,0c0,0,0.7,0.4,1.6,0.4c1.1,0,2-0.7,2-0.7
			c0.4-0.3,1.2-0.3,1.6,0c0,0,0.9,0.7,2,0.7c2,0,3.7-1.7,3.7-3.7c0-0.9-0.3-1.4-0.3-1.4c-0.3-0.5-0.2-1.2,0.3-1.5
			C101.3,66.9,103.2,65.3,103.2,63.5z"/>
		<path id="XMLID_14906_" class="st10" d="M93.6,69.6c-0.3,0.1-0.6-0.1-0.8-0.4c0,0-0.1-0.2-0.4-0.5c-1-0.8-2.4-0.6-3.2,0.4
			c-0.1,0.1-0.1,0.1-0.1,0.1c-0.1,0.1-0.4,0.3-0.6,0.3c0,0-0.7,0.1-1.1,0.7c-0.4,0.5-0.4,1.3-0.4,1.3c0,0.3,0,0.6-0.1,0.7
			c0,0,0,0-0.1,0.1c-0.8,1-0.6,2.4,0.4,3.2c0,0,0,0,0,0c0,0,0.1,0.3,0,0.6c0,0-0.1,1.4,0.7,2.1c0.7,0.6,2,0.3,2,0.3
			c0.3-0.1,0.8-0.1,1.1-0.1c0,0,1.6,0.1,2.2-0.7c0,0,0,0,0,0c0,0,0.3-0.1,0.6,0c0,0,1.4,0.1,2.1-0.7c0.8-1,0.6-2.4-0.4-3.2
			c0,0,0,0,0,0c-0.1,0,0.1-0.2,0.3-0.4c0,0,0,0,0.2-0.2c0.8-1,0.6-2.4-0.4-3.2C94.8,69.3,93.6,69.6,93.6,69.6z"/>
		<g id="XMLID_14895_">
			<polygon id="XMLID_14905_" class="st11" points="91.9,78.4 94.1,76.3 96.3,78.4 96.3,87 91.9,87 			"/>
			<polygon id="XMLID_14904_" class="st11" points="85.4,78.4 87.5,76.3 89.7,78.4 89.7,87 85.4,87 			"/>
			<polygon id="XMLID_14903_" class="st11" points="78.8,78.4 81,76.3 83.2,78.4 83.2,87 78.8,87 			"/>
			<polygon id="XMLID_14902_" class="st11" points="72.3,78.4 74.4,76.3 76.6,78.4 76.6,87 72.3,87 			"/>
			<polygon id="XMLID_14901_" class="st11" points="65.7,78.4 67.9,76.3 70.1,78.4 70.1,87 65.7,87 			"/>
			<polygon id="XMLID_14900_" class="st11" points="59.2,78.4 61.3,76.3 63.5,78.4 63.5,87 59.2,87 			"/>
			<polygon id="XMLID_14899_" class="st11" points="35.5,78.4 37.7,76.3 39.9,78.4 39.9,87 35.5,87 			"/>
			<polygon id="XMLID_14898_" class="st11" points="29,78.4 31.2,76.3 33.3,78.4 33.3,87 29,87 			"/>
			<rect id="XMLID_14897_" x="59.2" y="81.1" class="st7" width="37.1" height="2.7"/>
			<rect id="XMLID_14896_" x="29" y="81.1" class="st7" width="10.9" height="2.7"/>
		</g>
	</g>
	<linearGradient id="XMLID_20_" gradientUnits="userSpaceOnUse" x1="85.7283" y1="88.602" x2="85.7283" y2="119.7551">
		<stop  offset="0" style="stop-color:#4A708E"/>
		<stop  offset="1" style="stop-color:#5984A1"/>
	</linearGradient>
	<polygon id="XMLID_14893_" class="st12" points="69,127 29,87 96.3,87.1 142.4,131.2 	"/>
</g>
</svg>
