<?xml version="1.0" encoding="utf-8"?>
<!-- Generator: Adobe Illustrator 19.0.0, SVG Export Plug-In . SVG Version: 6.00 Build 0)  -->
<svg version="1.1" id="Layer_1" xmlns="http://www.w3.org/2000/svg" xmlns:xlink="http://www.w3.org/1999/xlink" x="0px" y="0px"
	 viewBox="0 0 126 126" style="enable-background:new 0 0 126 126;" xml:space="preserve">
<style type="text/css">
	.st0{clip-path:url(#XMLID_15_);fill:url(#XMLID_16_);}
	.st1{clip-path:url(#XMLID_15_);fill:url(#XMLID_17_);}
	.st2{clip-path:url(#XMLID_15_);fill:url(#XMLID_18_);}
	.st3{clip-path:url(#XMLID_15_);fill:url(#XMLID_19_);}
	.st4{clip-path:url(#XMLID_15_);fill:url(#XMLID_20_);}
	.st5{clip-path:url(#XMLID_15_);}
	.st6{fill:#5D8039;}
	.st7{fill:#E6E6E5;}
	.st8{fill:#EABB22;}
	.st9{fill:#91CCF0;}
	.st10{fill:#5984A1;}
	.st11{fill:#84A355;}
</style>
<g id="XMLID_15155_">
	<defs>
		<circle id="XMLID_15156_" cx="63" cy="63" r="63"/>
	</defs>
	<use xlink:href="#XMLID_15156_"  style="overflow:visible;fill:#E46A5E;"/>
	<clipPath id="XMLID_15_">
		<use xlink:href="#XMLID_15156_"  style="overflow:visible;"/>
	</clipPath>
	<linearGradient id="XMLID_16_" gradientUnits="userSpaceOnUse" x1="87.076" y1="38.2884" x2="87.076" y2="70.9838">
		<stop  offset="0" style="stop-color:#CE655A"/>
		<stop  offset="1" style="stop-color:#E46A5E"/>
	</linearGradient>
	<polygon id="XMLID_15231_" class="st0" points="89.3,76.8 49.2,36.7 78.6,36.7 125,83 	"/>
	<linearGradient id="XMLID_17_" gradientUnits="userSpaceOnUse" x1="89.3016" y1="57.5755" x2="89.3016" y2="90.2709">
		<stop  offset="0" style="stop-color:#CE655A"/>
		<stop  offset="1" style="stop-color:#E46A5E"/>
	</linearGradient>
	<polygon id="XMLID_15230_" class="st1" points="63.4,96 23.3,55.9 108.9,56 155.3,102.3 	"/>
	<linearGradient id="XMLID_18_" gradientUnits="userSpaceOnUse" x1="85.7158" y1="89.2649" x2="85.7158" y2="120.5507">
		<stop  offset="0" style="stop-color:#CE655A"/>
		<stop  offset="1" style="stop-color:#E46A5E"/>
	</linearGradient>
	<polygon id="XMLID_15229_" class="st2" points="61.9,127.8 21.8,87.7 103.3,87.7 149.6,132.1 	"/>
	<linearGradient id="XMLID_19_" gradientUnits="userSpaceOnUse" x1="80.8263" y1="72.7559" x2="80.8263" y2="105.4513">
		<stop  offset="0" style="stop-color:#CE655A"/>
		<stop  offset="1" style="stop-color:#E46A5E"/>
	</linearGradient>
	<polygon id="XMLID_15228_" class="st3" points="55,111.2 14.9,71.1 100.4,71.1 146.8,117.5 	"/>
	<linearGradient id="XMLID_20_" gradientUnits="userSpaceOnUse" x1="84.3721" y1="85.6064" x2="84.3721" y2="118.4269">
		<stop  offset="0" style="stop-color:#CE655A"/>
		<stop  offset="1" style="stop-color:#E46A5E"/>
	</linearGradient>
	<polygon id="XMLID_15227_" class="st4" points="62.5,124.1 22.4,84 100,84.2 146.3,130.5 	"/>
	<g id="XMLID_15157_" class="st5">
		<path id="XMLID_15226_" class="st6" d="M111.5,64.8c0-1.8-1.9-3.3-1.9-3.3c-0.4-0.3-0.5-0.9-0.2-1.4c0,0,0.5-0.7,0.5-1.7
			c0-1.9-1.6-3.5-3.5-3.5c-0.7,0-1,0.1-1,0.1c-0.5,0.2-1.1,0-1.4-0.4c0,0-1.2-2.1-3-2.1c-1.6,0-2.7,1.6-2.7,1.6
			c-0.3,0.4-0.6,0.8-0.7,0.8c0,0,0,0-0.1,0c-1.9,0-3.5,1.6-3.5,3.5c0,0.2,0,0.2,0,0.2c0,0.2,0,0.3,0,0.3c0,0,0,0,0,0
			c-1.9,0-3.5,1.6-3.5,3.5c0,1,0.6,1.8,0.6,1.8c0.3,0.4,0.2,1-0.2,1.3c0,0-1.6,1.2-1.6,2.7c0,1.9,1.6,3.5,3.5,3.5c0.1,0,0.1,0,0.1,0
			c0.1,0,0.4,0.3,0.7,0.8c0,0,1.2,1.6,2.7,1.6c0.9,0,1.5-0.4,1.5-0.4c0.4-0.3,1.2-0.3,1.6,0c0,0,0.6,0.4,1.5,0.4
			c1.1,0,1.9-0.6,1.9-0.6c0.4-0.3,1.1-0.3,1.5,0c0,0,0.8,0.6,1.9,0.6c1.9,0,3.5-1.6,3.5-3.5c0-0.8-0.3-1.3-0.3-1.3
			c-0.3-0.5-0.2-1.1,0.3-1.5C109.7,67.9,111.5,66.5,111.5,64.8z"/>
		<polygon id="XMLID_15225_" class="st7" points="96.7,57.4 96.7,84.8 28.6,84.8 28.6,57.4 48.4,57.4 48.4,40.8 62.7,28.9 
			76.9,40.8 76.9,57.4 		"/>
		<polygon id="XMLID_15224_" class="st8" points="79.3,37.4 79.3,42.8 62.7,28.9 46,42.8 46,37.4 62.7,23.5 		"/>
		<polygon id="XMLID_15223_" class="st8" points="48.4,47.7 48.4,57.4 22.3,57.4 32.6,47.7 		"/>
		<polygon id="XMLID_15222_" class="st8" points="103,57.4 76.9,57.4 76.9,47.7 92.7,47.7 		"/>
		<g id="XMLID_15213_">
			<path id="XMLID_15220_" class="st9" d="M33.3,61.5v14.7h15.1V61.5H33.3z"/>
			<path id="XMLID_15214_" class="st10" d="M33.3,61.5v14.7h15.1V61.5H33.3z M47.2,68.2h-5.7v-5.5h5.7V68.2z M40.2,62.7v5.5h-5.7
				v-5.5H40.2z M34.5,69.5h5.7V75h-5.7V69.5z M41.4,75v-5.5h5.7V75H41.4z"/>
		</g>
		<g id="XMLID_15204_">
			<path id="XMLID_15211_" class="st9" d="M56.3,39.4v12.3H69V39.4H56.3z"/>
			<path id="XMLID_15205_" class="st10" d="M56.3,39.4v12.3H69V39.4H56.3z M67.9,45.1h-4.8v-4.6h4.8V45.1z M62.1,40.4v4.6h-4.8v-4.6
				H62.1z M57.3,46.1h4.8v4.6h-4.8V46.1z M63.2,50.7v-4.6h4.8v4.6H63.2z"/>
		</g>
		<g id="XMLID_15195_">
			<path id="XMLID_15202_" class="st9" d="M76.9,61.5v14.7h15.1V61.5H76.9z"/>
			<path id="XMLID_15196_" class="st10" d="M76.9,61.5v14.7h15.1V61.5H76.9z M90.8,68.2h-5.7v-5.5h5.7V68.2z M83.9,62.7v5.5h-5.7
				v-5.5H83.9z M78.1,69.5h5.7V75h-5.7V69.5z M85.1,75v-5.5h5.7V75H85.1z"/>
		</g>
		<rect id="XMLID_15194_" x="55.9" y="60.3" class="st9" width="13.4" height="24.5"/>
		<path id="XMLID_15188_" class="st10" d="M55.9,60.3v24.5h13.4V60.3H55.9z M68.3,71.8h-5.1V61.3h5.1V71.8z M57,61.3h5.1v10.4H57
			V61.3z"/>
		<path id="XMLID_15187_" class="st6" d="M36.6,65.7c0-1.8-1.9-3.3-1.9-3.3c-0.4-0.3-0.5-0.9-0.2-1.4c0,0,0.5-0.7,0.5-1.7
			c0-1.9-1.6-3.5-3.5-3.5c-0.7,0-1,0.1-1,0.1c-0.5,0.2-1.1,0-1.4-0.4c0,0-1.2-2.1-3-2.1c-1.6,0-2.7,1.6-2.7,1.6
			c-0.3,0.4-0.6,0.8-0.7,0.8c0,0,0,0-0.1,0c-1.9,0-3.5,1.6-3.5,3.5c0,0.2,0,0.2,0,0.2c0,0.2,0,0.3,0,0.3c0,0,0,0,0,0
			c-1.9,0-3.5,1.6-3.5,3.5c0,1,0.6,1.8,0.6,1.8c0.3,0.4,0.2,1-0.2,1.3c0,0-1.6,1.2-1.6,2.7c0,1.9,1.6,3.5,3.5,3.5c0.1,0,0.1,0,0.1,0
			c0.1,0,0.4,0.3,0.7,0.8c0,0,1.2,1.6,2.7,1.6c0.9,0,1.5-0.4,1.5-0.4c0.4-0.3,1.2-0.3,1.6,0c0,0,0.6,0.4,1.5,0.4
			c1.1,0,1.9-0.6,1.9-0.6c0.4-0.3,1.1-0.3,1.5,0c0,0,0.8,0.6,1.9,0.6c1.9,0,3.5-1.6,3.5-3.5c0-0.8-0.3-1.3-0.3-1.3
			c-0.3-0.5-0.2-1.1,0.3-1.5C34.9,68.9,36.6,67.4,36.6,65.7z"/>
		<path id="XMLID_15186_" class="st11" d="M28.9,72.5c-0.3,0.1-0.7-0.1-0.8-0.4c0,0-0.1-0.2-0.5-0.5c-1-0.8-2.5-0.6-3.3,0.4
			c-0.1,0.1-0.1,0.1-0.1,0.1c-0.1,0.1-0.4,0.3-0.7,0.3c0,0-0.8,0.1-1.2,0.7c-0.4,0.6-0.4,1.3-0.4,1.3c0,0.3-0.1,0.6-0.2,0.7
			c0,0,0,0-0.1,0.1c-0.8,1-0.6,2.5,0.4,3.3c0,0,0,0,0,0c0,0,0.1,0.3,0,0.6c0,0-0.1,1.5,0.8,2.1c0.8,0.6,2.1,0.3,2.1,0.3
			c0.3-0.1,0.8-0.1,1.1-0.1c0,0,1.6,0.2,2.3-0.7c0,0,0,0,0,0c0,0,0.3-0.1,0.6,0c0,0,1.5,0.1,2.1-0.8c0.8-1,0.6-2.5-0.4-3.3
			c0,0,0,0,0,0c-0.1,0,0.1-0.2,0.4-0.4c0,0,0,0,0.2-0.2c0.8-1,0.6-2.5-0.4-3.3C30.2,72.2,28.9,72.5,28.9,72.5z"/>
		<path id="XMLID_15185_" class="st11" d="M101,71.7c-0.3,0.1-0.7-0.1-0.8-0.4c0,0-0.1-0.2-0.5-0.5c-1-0.8-2.5-0.6-3.3,0.4
			c-0.1,0.1-0.1,0.1-0.1,0.1c-0.1,0.1-0.4,0.3-0.7,0.3c0,0-0.8,0.1-1.2,0.7c-0.4,0.6-0.4,1.3-0.4,1.3c0,0.3-0.1,0.6-0.2,0.7
			c0,0,0,0-0.1,0.1c-0.8,1-0.6,2.5,0.4,3.3c0,0,0,0,0,0c0,0,0.1,0.3,0,0.6c0,0-0.1,1.5,0.8,2.1c0.8,0.6,2.1,0.3,2.1,0.3
			c0.3-0.1,0.8-0.1,1.1-0.1c0,0,1.6,0.2,2.3-0.7c0,0,0,0,0,0c0,0,0.3-0.1,0.6,0c0,0,1.5,0.1,2.1-0.8c0.8-1,0.6-2.5-0.4-3.3
			c0,0,0,0,0,0c-0.1,0,0.1-0.2,0.4-0.4c0,0,0,0,0.2-0.2c0.8-1,0.6-2.5-0.4-3.3C102.3,71.4,101,71.7,101,71.7z"/>
		<g id="XMLID_15175_">
			<polygon id="XMLID_15184_" class="st8" points="50.4,80.3 52.3,78.4 54.2,80.3 54.2,87.7 50.4,87.7 			"/>
			<polygon id="XMLID_15183_" class="st8" points="44.7,80.3 46.6,78.4 48.5,80.3 48.5,87.7 44.7,87.7 			"/>
			<polygon id="XMLID_15182_" class="st8" points="39.1,80.3 40.9,78.4 42.8,80.3 42.8,87.7 39.1,87.7 			"/>
			<polygon id="XMLID_15181_" class="st8" points="33.4,80.3 35.3,78.4 37.2,80.3 37.2,87.7 33.4,87.7 			"/>
			<polygon id="XMLID_15180_" class="st8" points="27.7,80.3 29.6,78.4 31.5,80.3 31.5,87.7 27.7,87.7 			"/>
			<polygon id="XMLID_15179_" class="st8" points="22.1,80.3 24,78.4 25.9,80.3 25.9,87.7 22.1,87.7 			"/>
			<rect id="XMLID_15178_" x="22.1" y="82.6" class="st10" width="32.1" height="2.4"/>
		</g>
		<g id="XMLID_15158_">
			<polygon id="XMLID_15174_" class="st8" points="99.5,80.3 101.4,78.4 103.3,80.3 103.3,87.7 99.5,87.7 			"/>
			<polygon id="XMLID_15173_" class="st8" points="93.8,80.3 95.7,78.4 97.6,80.3 97.6,87.7 93.8,87.7 			"/>
			<polygon id="XMLID_15163_" class="st8" points="88.2,80.3 90.1,78.4 92,80.3 92,87.7 88.2,87.7 			"/>
			<polygon id="XMLID_15162_" class="st8" points="82.5,80.3 84.4,78.4 86.3,80.3 86.3,87.7 82.5,87.7 			"/>
			<polygon id="XMLID_15161_" class="st8" points="76.9,80.3 78.8,78.4 80.6,80.3 80.6,87.7 76.9,87.7 			"/>
			<polygon id="XMLID_15160_" class="st8" points="71.2,80.3 73.1,78.4 75,80.3 75,87.7 71.2,87.7 			"/>
			<rect id="XMLID_15159_" x="71.2" y="82.6" class="st10" width="32.1" height="2.4"/>
		</g>
	</g>
</g>
</svg>
