<svg width="30" height="30" viewBox="0 0 30 30" fill="none" xmlns="http://www.w3.org/2000/svg">
<path d="M6 13C8.33333 17.6667 12.3333 21.5 17 24L20.6667 20.3333C21.1666 19.8334 21.8333 19.6667 22.3333 20C24.1667 20.6667 26.1666 21 28.3333 21C29.3333 21 30 21.6667 30 22.6667V28.3333C30 29.3333 29.3333 30 28.3333 30C12.6667 30 0 17.3333 0 1.66667C0 0.666667 0.666667 0 1.66667 0H7.5C8.5 0 9.16667 0.666667 9.16667 1.66667C9.16667 3.66667 9.5 5.66667 10.1667 7.66667C10.3333 8.16667 10.1667 8.83333 9.83333 9.33333L6 13Z" fill="white"/>
</svg>
